<svg xmlns="http://www.w3.org/2000/svg" xmlns:xlink="http://www.w3.org/1999/xlink" viewBox="0 0 900 1000" width="900" height="1000" role="img" data-asset="box-BOX-NBA-SELECT-25"><defs><linearGradient id="fBOXNBASELECT25" x1="0%" y1="0%" x2="80%" y2="100%"><stop offset="0%" stop-color="#343f3c"/><stop offset="46%" stop-color="#0D1A17"/><stop offset="100%" stop-color="#070d0c"/></linearGradient><linearGradient id="tBOXNBASELECT25" x1="0%" y1="0%" x2="60%" y2="100%"><stop offset="0%" stop-color="#565f5d"/><stop offset="100%" stop-color="#0D1A17"/></linearGradient><linearGradient id="sBOXNBASELECT25" x1="0%" y1="0%" x2="100%" y2="40%"><stop offset="0%" stop-color="#08110f"/><stop offset="100%" stop-color="#040706"/></linearGradient><linearGradient id="mBOXNBASELECT25" x1="0%" y1="0%" x2="100%" y2="70%"><stop offset="0%" stop-color="#dcfff5"/><stop offset="26%" stop-color="#4FE0B5"/><stop offset="50%" stop-color="#FFFFFF"/><stop offset="74%" stop-color="#4FE0B5"/><stop offset="100%" stop-color="#2f866d"/></linearGradient><linearGradient id="glBOXNBASELECT25" x1="0%" y1="0%" x2="40%" y2="100%"><stop offset="0%" stop-color="#FFFFFF" stop-opacity="0.3"/><stop offset="40%" stop-color="#FFFFFF" stop-opacity="0.04"/><stop offset="100%" stop-color="#FFFFFF" stop-opacity="0"/></linearGradient><radialGradient id="shBOXNBASELECT25" cx="50%" cy="50%" r="50%"><stop offset="0%" stop-color="#000000" stop-opacity="0.55"/><stop offset="100%" stop-color="#000000" stop-opacity="0"/></radialGradient><clipPath id="cfBOXNBASELECT25"><polygon points="140,330 560,300 560,910 140,940"/></clipPath><clipPath id="csBOXNBASELECT25"><polygon points="560,300 750,205 750,800 560,910"/></clipPath></defs><ellipse cx="450" cy="946" rx="330" ry="44" fill="url(#shBOXNBASELECT25)"/><polygon points="140,330 330,232 750,205 560,300" fill="url(#tBOXNBASELECT25)"/><g opacity="0.55"><text x="445" y="278" font-family="'Archivo Black','Helvetica Neue',Impact,'Arial Narrow',sans-serif" font-size="34" font-weight="900" fill="#EFFFF9" text-anchor="middle" transform="rotate(-4 445 278) skewX(-16)" opacity="0.8">2025 VERTEX</text></g><polygon points="560,300 750,205 750,800 560,910" fill="url(#sBOXNBASELECT25)"/><g clip-path="url(#csBOXNBASELECT25)"><rect x="560" y="200" width="200" height="720" fill="#4FE0B5" opacity="0.12"/><text x="0" y="0" font-family="'Bebas Neue','Oswald','Arial Narrow',Impact,sans-serif" font-size="30" fill="#EFFFF9" opacity="0.72" letter-spacing="4" transform="translate(694,842) rotate(-70)">VERTEX 2025</text><text x="0" y="0" font-family="'JetBrains Mono','SF Mono',Menlo,monospace" font-size="17" fill="#4FE0B5" opacity="0.75" letter-spacing="3" transform="translate(724,842) rotate(-70)">BASKETBALL HOBBY</text></g><polygon points="140,330 560,300 560,910 140,940" fill="url(#fBOXNBASELECT25)"/><g clip-path="url(#cfBOXNBASELECT25)"><path d="M350,240L620,470v320L350,1000L80,790V470Z" fill="#4FE0B5" opacity="0.2"/><path d="M60,260H660" stroke="#B9FFEA" stroke-width="1.6" opacity="0.22"/><path d="M60,312H660" stroke="#B9FFEA" stroke-width="1.6" opacity="0.22"/><path d="M60,364H660" stroke="#B9FFEA" stroke-width="1.6" opacity="0.22"/><path d="M60,416H660" stroke="#B9FFEA" stroke-width="1.6" opacity="0.22"/><path d="M60,468H660" stroke="#B9FFEA" stroke-width="1.6" opacity="0.22"/><path d="M60,520H660" stroke="#B9FFEA" stroke-width="1.6" opacity="0.22"/><path d="M60,572H660" stroke="#B9FFEA" stroke-width="1.6" opacity="0.22"/><path d="M60,624H660" stroke="#B9FFEA" stroke-width="1.6" opacity="0.22"/><path d="M60,676H660" stroke="#B9FFEA" stroke-width="1.6" opacity="0.22"/><path d="M60,728H660" stroke="#B9FFEA" stroke-width="1.6" opacity="0.22"/><path d="M60,780H660" stroke="#B9FFEA" stroke-width="1.6" opacity="0.22"/><path d="M60,832H660" stroke="#B9FFEA" stroke-width="1.6" opacity="0.22"/><path d="M60,884H660" stroke="#B9FFEA" stroke-width="1.6" opacity="0.22"/><path d="M60,936H660" stroke="#B9FFEA" stroke-width="1.6" opacity="0.22"/><polygon points="140,330 560,300 560,910 140,940" fill="url(#glBOXNBASELECT25)"/><path d="M140,700h420v14H140Z" fill="#4FE0B5" opacity="0.5"/><rect x="140" y="826" width="420" height="120" fill="#000000" opacity="0.45"/></g><g transform="rotate(-4 350 560)"><text x="350" y="430" font-family="'Bebas Neue','Oswald','Arial Narrow',Impact,sans-serif" font-size="34" fill="#EFFFF9" text-anchor="middle" letter-spacing="10" opacity="0.85">2025</text><text x="350" y="512" font-family="'Archivo Black','Helvetica Neue',Impact,'Arial Narrow',sans-serif" font-size="76" font-weight="900" fill="url(#mBOXNBASELECT25)" text-anchor="middle">VERTEX</text><text x="350" y="574" font-family="'Bebas Neue','Oswald','Arial Narrow',Impact,sans-serif" font-size="46" fill="#EFFFF9" text-anchor="middle" letter-spacing="12">SELECT</text><text x="350" y="646" font-family="'Bebas Neue','Oswald','Arial Narrow',Impact,sans-serif" font-size="30" fill="#4FE0B5" text-anchor="middle" letter-spacing="8">BASKETBALL</text><text x="350" y="762" font-family="'Archivo Black','Helvetica Neue',Impact,'Arial Narrow',sans-serif" font-size="40" font-weight="900" fill="#EFFFF9" text-anchor="middle" letter-spacing="6" opacity="0.9">HOBBY BOX</text><text x="350" y="878" font-family="'Bebas Neue','Oswald','Arial Narrow',Impact,sans-serif" font-size="30" fill="#EFFFF9" text-anchor="middle" letter-spacing="3" opacity="0.9">12 PACKS · 5 CARDS PER PACK</text><text x="350" y="918" font-family="'JetBrains Mono','SF Mono',Menlo,monospace" font-size="20" fill="#4FE0B5" text-anchor="middle" letter-spacing="2">MERIDIAN</text></g><g transform="translate(492,378) rotate(11)"><circle r="58" fill="url(#mBOXNBASELECT25)"/><circle r="49" fill="none" stroke="#08100e" stroke-width="3" opacity="0.6"/><text y="-8" font-family="'Archivo Black','Helvetica Neue',Impact,'Arial Narrow',sans-serif" font-size="20" font-weight="900" fill="#050a09" text-anchor="middle">FACTORY</text><text y="14" font-family="'Archivo Black','Helvetica Neue',Impact,'Arial Narrow',sans-serif" font-size="20" font-weight="900" fill="#050a09" text-anchor="middle">SEALED</text><text y="34" font-family="'JetBrains Mono','SF Mono',Menlo,monospace" font-size="11" fill="#070d0c" text-anchor="middle" letter-spacing="1">HOBBY ONLY</text></g><polygon points="140,330 560,300 560,910 140,940" fill="none" stroke="rgba(185,255,234,0.5)" stroke-width="3"/><polygon points="140,330 330,232 750,205 560,300" fill="none" stroke="rgba(185,255,234,0.35)" stroke-width="2.5"/><polygon points="560,300 750,205 750,800 560,910" fill="none" stroke="rgba(185,255,234,0.25)" stroke-width="2.5"/></svg>
