<svg xmlns="http://www.w3.org/2000/svg" xmlns:xlink="http://www.w3.org/1999/xlink" viewBox="0 0 1920 1200" width="1920" height="1200" role="img" data-asset="bg-market"><defs><linearGradient id="mg" x1="10%" y1="0%" x2="90%" y2="100%"><stop offset="0%" stop-color="#0E1B1A"/><stop offset="54%" stop-color="#0A1219"/><stop offset="100%" stop-color="#05090C"/></linearGradient></defs><rect width="1920" height="1200" fill="url(#mg)"/><g opacity="0.28"><g><rect x="8" y="478.21972692152485" width="14" height="243.5605461569503" fill="#3FBF8F" opacity="0.5"/><path d="M15,452.21972692152485V747.7802730784751" stroke="#3FBF8F" stroke-width="2" opacity="0.5"/></g><g><rect x="40" y="508.09047109940946" width="14" height="243.54166557081044" fill="#3FBF8F" opacity="0.5"/><path d="M47,482.09047109940946V777.6321366702199" stroke="#3FBF8F" stroke-width="2" opacity="0.5"/></g><g><rect x="72" y="537.1325176021875" width="14" height="243.52505564223975" fill="#D9564E" opacity="0.5"/><path d="M79,511.1325176021875V806.6575732444272" stroke="#D9564E" stroke-width="2" opacity="0.5"/></g><g><rect x="104" y="564.5435094207066" width="14" height="243.5061750560999" fill="#D9564E" opacity="0.5"/><path d="M111,538.5435094207066V834.0496844768065" stroke="#D9564E" stroke-width="2" opacity="0.5"/></g><g><rect x="136" y="589.5617727686946" width="14" height="243.48958356771618" fill="#3FBF8F" opacity="0.5"/><path d="M143,563.5617727686946V859.0513563364108" stroke="#3FBF8F" stroke-width="2" opacity="0.5"/></g><g><rect x="168" y="611.4964820844986" width="14" height="243.47070298157632" fill="#D9564E" opacity="0.5"/><path d="M175,585.4964820844986V880.9671850660749" stroke="#D9564E" stroke-width="2" opacity="0.5"/></g><g><rect x="200" y="629.7377122987316" width="14" height="243.4541299333796" fill="#D9564E" opacity="0.5"/><path d="M207,603.7377122987316V899.1918422321112" stroke="#D9564E" stroke-width="2" opacity="0.5"/></g><g><rect x="232" y="643.782471592056" width="14" height="243.43524934723973" fill="#D9564E" opacity="0.5"/><path d="M239,617.782471592056V913.2177209392958" stroke="#D9564E" stroke-width="2" opacity="0.5"/></g><g><rect x="264" y="653.2394933159683" width="14" height="243.41865785885602" fill="#D9564E" opacity="0.5"/><path d="M271,627.2394933159683V922.6581511748243" stroke="#D9564E" stroke-width="2" opacity="0.5"/></g><g><rect x="296" y="657.8492089523718" width="14" height="243.39977727271616" fill="#D9564E" opacity="0.5"/><path d="M303,631.8492089523718V927.248986225088" stroke="#D9564E" stroke-width="2" opacity="0.5"/></g><g><rect x="328" y="617.297642091279" width="14" height="323.75158060807735" fill="#D9564E" opacity="0.5"/><path d="M335,591.297642091279V967.0492226993564" stroke="#D9564E" stroke-width="2" opacity="0.5"/></g><g><rect x="360" y="611.929836610896" width="14" height="323.8048021309078" fill="#D9564E" opacity="0.5"/><path d="M367,585.929836610896V961.7346387418038" stroke="#D9564E" stroke-width="2" opacity="0.5"/></g><g><rect x="392" y="601.7800060169739" width="14" height="323.78706162329763" fill="#D9564E" opacity="0.5"/><path d="M399,575.7800060169739V951.5670676402715" stroke="#D9564E" stroke-width="2" opacity="0.5"/></g><g><rect x="424" y="586.0974663295392" width="14" height="325.7627941062674" fill="#3FBF8F" opacity="0.5"/><path d="M431,560.0974663295392V937.8602604358066" stroke="#3FBF8F" stroke-width="2" opacity="0.5"/></g><g><rect x="456" y="567.264621436544" width="14" height="325.78167455270886" fill="#3FBF8F" opacity="0.5"/><path d="M463,541.264621436544V919.0462959892528" stroke="#3FBF8F" stroke-width="2" opacity="0.5"/></g><g><rect x="488" y="544.8624693320199" width="14" height="325.72503321338445" fill="#3FBF8F" opacity="0.5"/><path d="M495,518.8624693320199V896.5875025454044" stroke="#3FBF8F" stroke-width="2" opacity="0.5"/></g><g><rect x="520" y="519.4371159645332" width="14" height="325.7439136598259" fill="#3FBF8F" opacity="0.5"/><path d="M527,493.4371159645332V871.1810296243591" stroke="#3FBF8F" stroke-width="2" opacity="0.5"/></g><g><rect x="552" y="491.7684571860568" width="14" height="325.68725388031453" fill="#3FBF8F" opacity="0.5"/><path d="M559,465.7684571860568V843.4557110663714" stroke="#3FBF8F" stroke-width="2" opacity="0.5"/></g><g><rect x="584" y="462.54853428739807" width="14" height="325.706134326756" fill="#3FBF8F" opacity="0.5"/><path d="M591,436.54853428739807V814.2546686141541" stroke="#3FBF8F" stroke-width="2" opacity="0.5"/></g><g><rect x="616" y="432.66240406315376" width="14" height="325.6494929874316" fill="#3FBF8F" opacity="0.5"/><path d="M623,406.66240406315376V784.3118970505853" stroke="#3FBF8F" stroke-width="2" opacity="0.5"/></g><g><rect x="648" y="402.9250861614013" width="14" height="325.5453610420227" fill="#3FBF8F" opacity="0.5"/><path d="M655,376.9250861614013V754.470447203424" stroke="#3FBF8F" stroke-width="2" opacity="0.5"/></g><g><rect x="680" y="374.07689596661294" width="14" height="325.5642460985109" fill="#3FBF8F" opacity="0.5"/><path d="M687,348.07689596661294V725.6411420651239" stroke="#3FBF8F" stroke-width="2" opacity="0.5"/></g><g><rect x="712" y="347.01633117952804" width="14" height="325.50760014913976" fill="#3FBF8F" opacity="0.5"/><path d="M719,321.01633117952804V698.5239313286678" stroke="#3FBF8F" stroke-width="2" opacity="0.5"/></g><g><rect x="744" y="322.41858968415266" width="14" height="325.526485205628" fill="#3FBF8F" opacity="0.5"/><path d="M751,296.41858968415266V673.9450748897807" stroke="#3FBF8F" stroke-width="2" opacity="0.5"/></g><g><rect x="776" y="301.1780018433523" width="14" height="325.1950980024412" fill="#D9564E" opacity="0.5"/><path d="M783,275.1780018433523V652.3730998457936" stroke="#D9564E" stroke-width="2" opacity="0.5"/></g><g><rect x="808" y="283.5558497842683" width="14" height="325.17736182548106" fill="#D9564E" opacity="0.5"/><path d="M815,257.5558497842683V634.7332116097493" stroke="#D9564E" stroke-width="2" opacity="0.5"/></g><g><rect x="840" y="270.19872582653045" width="14" height="325.1573278894648" fill="#3FBF8F" opacity="0.5"/><path d="M847,244.19872582653045V621.3560537159952" stroke="#3FBF8F" stroke-width="2" opacity="0.5"/></g><g><rect x="872" y="261.4747829640302" width="14" height="325.1395917125046" fill="#D9564E" opacity="0.5"/><path d="M879,235.47478296403023V612.6143746765349" stroke="#D9564E" stroke-width="2" opacity="0.5"/></g><g><rect x="904" y="257.6283360341287" width="14" height="325.11955777648836" fill="#3FBF8F" opacity="0.5"/><path d="M911,231.62833603412872V608.7478938106171" stroke="#3FBF8F" stroke-width="2" opacity="0.5"/></g><g><rect x="936" y="258.76396353220844" width="14" height="325.1018215995282" fill="#3FBF8F" opacity="0.5"/><path d="M943,232.76396353220844V609.8657851317366" stroke="#3FBF8F" stroke-width="2" opacity="0.5"/></g><g><rect x="968" y="264.8947810536795" width="14" height="324.9976990139112" fill="#D9564E" opacity="0.5"/><path d="M975,238.89478105367948V615.8924800675907" stroke="#D9564E" stroke-width="2" opacity="0.5"/></g><g><rect x="1000" y="275.76708506919624" width="14" height="324.9776694085449" fill="#D9564E" opacity="0.5"/><path d="M1007,249.76708506919624V626.7447544777411" stroke="#D9564E" stroke-width="2" opacity="0.5"/></g><g><rect x="1032" y="291.12074506736826" width="14" height="324.95992890093476" fill="#D9564E" opacity="0.5"/><path d="M1039,265.12074506736826V642.080673968303" stroke="#D9564E" stroke-width="2" opacity="0.5"/></g><g><rect x="1064" y="310.53279174954525" width="14" height="324.93989929556847" fill="#D9564E" opacity="0.5"/><path d="M1071,284.53279174954525V661.4726910451137" stroke="#D9564E" stroke-width="2" opacity="0.5"/></g><g><rect x="1096" y="333.46323709204523" width="14" height="324.9221587879583" fill="#D9564E" opacity="0.5"/><path d="M1103,307.46323709204523V684.3853958800036" stroke="#D9564E" stroke-width="2" opacity="0.5"/></g><g><rect x="1128" y="360.6616226051689" width="14" height="322.13714852463454" fill="#3FBF8F" opacity="0.5"/><path d="M1135,334.6616226051689V708.7987711298034" stroke="#3FBF8F" stroke-width="2" opacity="0.5"/></g><g><rect x="1160" y="388.6271958386553" width="14" height="322.156028971076" fill="#3FBF8F" opacity="0.5"/><path d="M1167,362.6271958386553V736.7832248097313" stroke="#3FBF8F" stroke-width="2" opacity="0.5"/></g><g><rect x="1192" y="417.9877598498812" width="14" height="322.1726208785549" fill="#3FBF8F" opacity="0.5"/><path d="M1199,391.9877598498812V766.160380728436" stroke="#3FBF8F" stroke-width="2" opacity="0.5"/></g><g><rect x="1224" y="447.92711111629296" width="14" height="322.19150132499635" fill="#3FBF8F" opacity="0.5"/><path d="M1231,421.92711111629296V796.1186124412893" stroke="#3FBF8F" stroke-width="2" opacity="0.5"/></g><g><rect x="1256" y="477.61755123956914" width="14" height="322.2080932324752" fill="#3FBF8F" opacity="0.5"/><path d="M1263,451.61755123956914V825.8256444720444" stroke="#3FBF8F" stroke-width="2" opacity="0.5"/></g><g><rect x="1288" y="506.3318390425011" width="14" height="322.030764920637" fill="#3FBF8F" opacity="0.5"/><path d="M1295,480.3318390425011V854.3626039631381" stroke="#3FBF8F" stroke-width="2" opacity="0.5"/></g><g><rect x="1320" y="533.0815904547796" width="14" height="322.0496499771252" fill="#3FBF8F" opacity="0.5"/><path d="M1327,507.08159045477964V881.1312404319049" stroke="#3FBF8F" stroke-width="2" opacity="0.5"/></g><g><rect x="1352" y="557.2244691321033" width="14" height="322.06623727455735" fill="#3FBF8F" opacity="0.5"/><path d="M1359,531.2244691321033V905.2907064066607" stroke="#3FBF8F" stroke-width="2" opacity="0.5"/></g><g><rect x="1384" y="578.0888629106041" width="14" height="322.08512233104557" fill="#3FBF8F" opacity="0.5"/><path d="M1391,552.0888629106041V926.1739852416497" stroke="#3FBF8F" stroke-width="2" opacity="0.5"/></g><g><rect x="1416" y="595.0985817171462" width="14" height="322.1017096284777" fill="#3FBF8F" opacity="0.5"/><path d="M1423,569.0985817171462V943.2002913456239" stroke="#3FBF8F" stroke-width="2" opacity="0.5"/></g><g><rect x="1448" y="607.77969847697" width="14" height="322.1205946849659" fill="#3FBF8F" opacity="0.5"/><path d="M1455,581.77969847697V955.9002931619359" stroke="#3FBF8F" stroke-width="2" opacity="0.5"/></g><g><rect x="1480" y="616.0666799174913" width="14" height="321.56944348011166" fill="#D9564E" opacity="0.5"/><path d="M1487,590.0666799174913V963.636123397603" stroke="#D9564E" stroke-width="2" opacity="0.5"/></g><g><rect x="1512" y="619.1857760029841" width="14" height="321.5517073031515" fill="#D9564E" opacity="0.5"/><path d="M1519,593.1857760029841V966.7374833061356" stroke="#D9564E" stroke-width="2" opacity="0.5"/></g><g><rect x="1544" y="617.2820221445427" width="14" height="321.60492449533194" fill="#3FBF8F" opacity="0.5"/><path d="M1551,591.2820221445427V964.8869466398746" stroke="#3FBF8F" stroke-width="2" opacity="0.5"/></g><g><rect x="1576" y="610.4783940457544" width="14" height="321.5871883183718" fill="#3FBF8F" opacity="0.5"/><path d="M1583,584.4783940457544V958.0655823641262" stroke="#3FBF8F" stroke-width="2" opacity="0.5"/></g><g><rect x="1608" y="599.008013714579" width="14" height="321.409851484932" fill="#D9564E" opacity="0.5"/><path d="M1615,573.008013714579V946.417865199511" stroke="#D9564E" stroke-width="2" opacity="0.5"/></g><g><rect x="1640" y="582.996143768347" width="14" height="321.46307300776243" fill="#D9564E" opacity="0.5"/><path d="M1647,556.996143768347V930.4592167761094" stroke="#D9564E" stroke-width="2" opacity="0.5"/></g><g><rect x="1672" y="563.036552470275" width="14" height="321.4453325001523" fill="#D9564E" opacity="0.5"/><path d="M1679,537.036552470275V910.4818849704272" stroke="#D9564E" stroke-width="2" opacity="0.5"/></g><g><rect x="1704" y="539.6116831467599" width="14" height="321.49853670038283" fill="#D9564E" opacity="0.5"/><path d="M1711,513.6116831467599V887.1102198471427" stroke="#D9564E" stroke-width="2" opacity="0.5"/></g><g><rect x="1736" y="513.4409292471298" width="14" height="321.4807961927727" fill="#D9564E" opacity="0.5"/><path d="M1743,487.4409292471298V860.9217254399025" stroke="#D9564E" stroke-width="2" opacity="0.5"/></g><g><rect x="1768" y="485.17886738157165" width="14" height="321.5340177156031" fill="#D9564E" opacity="0.5"/><path d="M1775,459.17886738157165V832.7128850971748" stroke="#D9564E" stroke-width="2" opacity="0.5"/></g><g><rect x="1800" y="455.6789637958584" width="14" height="321.51627720799297" fill="#D9564E" opacity="0.5"/><path d="M1807,429.6789637958584V803.1952410038514" stroke="#D9564E" stroke-width="2" opacity="0.5"/></g><g><rect x="1832" y="424.80005409907994" width="14" height="323.3454884355888" fill="#3FBF8F" opacity="0.5"/><path d="M1839,398.80005409907994V774.1455425346687" stroke="#3FBF8F" stroke-width="2" opacity="0.5"/></g><g><rect x="1864" y="395.201196395528" width="14" height="323.36436888203025" fill="#3FBF8F" opacity="0.5"/><path d="M1871,369.201196395528V744.5655652775582" stroke="#3FBF8F" stroke-width="2" opacity="0.5"/></g><g><rect x="1896" y="366.83501359993386" width="14" height="323.30772754270583" fill="#3FBF8F" opacity="0.5"/><path d="M1903,340.83501359993386V716.1427411426397" stroke="#3FBF8F" stroke-width="2" opacity="0.5"/></g></g><rect width="1920" height="1200" fill="#04070A" opacity="0.5"/></svg>
