<svg xmlns="http://www.w3.org/2000/svg" xmlns:xlink="http://www.w3.org/1999/xlink" viewBox="0 0 600 820" width="600" height="820" role="img" data-asset="insert-splash"><g><ellipse cx="360" cy="400" rx="90" ry="62" fill="var(--ts,#C8963E)" opacity="0.14" transform="rotate(0 300 400)"/><ellipse cx="243.95807761886533" cy="487.2665033198172" rx="87" ry="60" fill="var(--ta,#E9E4D8)" opacity="0.14" transform="rotate(24 300 400)"/><ellipse cx="308.04990647642904" cy="372.9126431851559" rx="84" ry="58" fill="var(--ta,#E9E4D8)" opacity="0.14" transform="rotate(48 300 400)"/><ellipse cx="365.7019419694835" cy="285.19897939136115" rx="81" ry="56" fill="var(--ts,#C8963E)" opacity="0.14" transform="rotate(72 300 400)"/><ellipse cx="177.89870588152826" cy="470.16409586168237" rx="78" ry="54" fill="var(--ta,#E9E4D8)" opacity="0.14" transform="rotate(96 300 400)"/><ellipse cx="418.1395542225489" cy="527.7579380197584" rx="75" ry="52" fill="var(--ta,#E9E4D8)" opacity="0.14" transform="rotate(120 300 400)"/><ellipse cx="259.46849243065435" cy="275.42230560834946" rx="72" ry="50" fill="var(--ts,#C8963E)" opacity="0.14" transform="rotate(144 300 400)"/><ellipse cx="220.76328296524565" cy="278.8451260015415" rx="69" ry="48" fill="var(--ta,#E9E4D8)" opacity="0.14" transform="rotate(168 300 400)"/><ellipse cx="476.5734251790117" cy="583.8606283792901" rx="66" ry="46" fill="var(--ta,#E9E4D8)" opacity="0.14" transform="rotate(192 300 400)"/><ellipse cx="111.40775791751946" cy="492.04381296630237" rx="63" ry="44" fill="var(--ts,#C8963E)" opacity="0.14" transform="rotate(216 300 400)"/><ellipse cx="393.31938161413933" cy="159.6506270301108" rx="60" ry="42" fill="var(--ta,#E9E4D8)" opacity="0.14" transform="rotate(240 300 400)"/><ellipse cx="370.53990590201533" cy="360.06826108179473" rx="57" ry="40" fill="var(--ta,#E9E4D8)" opacity="0.14" transform="rotate(264 300 400)"/><ellipse cx="82.02254952931202" cy="685.9407694408034" rx="54" ry="38" fill="var(--ts,#C8963E)" opacity="0.14" transform="rotate(288 300 400)"/><ellipse cx="561.7765846230459" cy="366.9744749910808" rx="51" ry="36" fill="var(--ta,#E9E4D8)" opacity="0.14" transform="rotate(312 300 400)"/></g></svg>
