<svg xmlns="http://www.w3.org/2000/svg" xmlns:xlink="http://www.w3.org/1999/xlink" viewBox="0 0 750 1050" width="750" height="1050" role="img" data-asset="frame-flawless-fg"><defs><linearGradient id="fieldG" x1="10%" y1="0%" x2="90%" y2="100%"><stop offset="0%" stop-color="var(--tp-l,#3C5678)"/><stop offset="46%" stop-color="var(--tp,#1B2A41)"/><stop offset="100%" stop-color="var(--tp-d,#080C13)"/></linearGradient><linearGradient id="deepG" x1="0%" y1="0%" x2="0%" y2="100%"><stop offset="0%" stop-color="var(--tp-d,#080C13)"/><stop offset="100%" stop-color="#05070A"/></linearGradient><linearGradient id="sheen" x1="0%" y1="0%" x2="100%" y2="30%"><stop offset="0%" stop-color="#FFFFFF" stop-opacity="0"/><stop offset="42%" stop-color="#FFFFFF" stop-opacity="0.24"/><stop offset="52%" stop-color="#FFFFFF" stop-opacity="0.5"/><stop offset="62%" stop-color="#FFFFFF" stop-opacity="0.18"/><stop offset="100%" stop-color="#FFFFFF" stop-opacity="0"/></linearGradient><linearGradient id="metal" x1="0%" y1="0%" x2="100%" y2="100%"><stop offset="0%" stop-color="#FFFFFF" stop-opacity="0.85"/><stop offset="24%" stop-color="var(--ts,#C8963E)"/><stop offset="48%" stop-color="#FFFFFF" stop-opacity="0.75"/><stop offset="70%" stop-color="var(--ts,#C8963E)"/><stop offset="100%" stop-color="#FFFFFF" stop-opacity="0.6"/></linearGradient><radialGradient id="vignette" cx="50%" cy="42%" r="78%"><stop offset="52%" stop-color="#000000" stop-opacity="0"/><stop offset="100%" stop-color="#000000" stop-opacity="0.62"/></radialGradient><radialGradient id="spot" cx="50%" cy="34%" r="54%"><stop offset="0%" stop-color="var(--ta,#E9E4D8)" stop-opacity="0.3"/><stop offset="100%" stop-color="var(--ta,#E9E4D8)" stop-opacity="0"/></radialGradient><filter id="grain"><feTurbulence type="fractalNoise" baseFrequency="0.9" numOctaves="3" stitchTiles="stitch"/><feColorMatrix type="saturate" values="0"/></filter></defs><path d="M26,22H724A4,4 0 0 1 728,26V1024A4,4 0 0 1 724,1028H26A4,4 0 0 1 22,1024V26A4,4 0 0 1 26,22Z" fill="none" stroke="url(#metal)" stroke-width="3.5"/><path d="M36,34H714A2,2 0 0 1 716,36V1014A2,2 0 0 1 714,1016H36A2,2 0 0 1 34,1014V36A2,2 0 0 1 36,34Z" fill="none" stroke="#FFFFFF" stroke-width="1" opacity="0.24"/><g><path d="M44.00,22.00L27.66,27.66L22.00,44.00L16.34,27.66L0.00,22.00L16.34,16.34L22.00,0.00L27.66,16.34Z" fill="#FFFFFF" opacity="0.85"/><circle cx="22" cy="22" r="5" fill="#FFFFFF"/></g><g><path d="M750.00,22.00L733.66,27.66L728.00,44.00L722.34,27.66L706.00,22.00L722.34,16.34L728.00,0.00L733.66,16.34Z" fill="#FFFFFF" opacity="0.85"/><circle cx="728" cy="22" r="5" fill="#FFFFFF"/></g><g><path d="M44.00,1028.00L27.66,1033.66L22.00,1050.00L16.34,1033.66L0.00,1028.00L16.34,1022.34L22.00,1006.00L27.66,1022.34Z" fill="#FFFFFF" opacity="0.85"/><circle cx="22" cy="1028" r="5" fill="#FFFFFF"/></g><g><path d="M750.00,1028.00L733.66,1033.66L728.00,1050.00L722.34,1033.66L706.00,1028.00L722.34,1022.34L728.00,1006.00L733.66,1022.34Z" fill="#FFFFFF" opacity="0.85"/><circle cx="728" cy="1028" r="5" fill="#FFFFFF"/></g><path d="M0,900h750v150H0Z" fill="#050506" opacity="0.85"/><path d="M56,900h638v1.5H56Z" fill="url(#metal)"/></svg>
